<svg xmlns="http://www.w3.org/2000/svg" version="1.1" xmlns:xlink="http://www.w3.org/1999/xlink" xmlns:svgjs="http://svgjs.dev/svgjs" width="470" height="470"><svg width="470" height="470" viewBox="0 0 124.35426 124.35418" version="1.1" id="SvgjsSvg1029" xml:space="preserve" sodipodi:docname="zd-logo.svg" inkscape:version="1.3.1 (9b9bdc1480, 2023-11-25, custom)" xmlns:inkscape="http://www.inkscape.org/namespaces/inkscape" xmlns:sodipodi="http://sodipodi.sourceforge.net/DTD/sodipodi-0.dtd" xmlns="http://www.w3.org/2000/svg" xmlns:svg="http://www.w3.org/2000/svg"><sodipodi:namedview id="SvgjsSodipodi:namedview1028" pagecolor="#ffffff" bordercolor="#000000" borderopacity="0.25" inkscape:showpageshadow="2" inkscape:pageopacity="0.0" inkscape:pagecheckerboard="0" inkscape:deskcolor="#d1d1d1" inkscape:document-units="mm" inkscape:zoom="1.067151" inkscape:cx="264.25502" inkscape:cy="256.75842" inkscape:window-width="1854" inkscape:window-height="1011" inkscape:window-x="66" inkscape:window-y="32" inkscape:window-maximized="1" inkscape:current-layer="layer7"></sodipodi:namedview><defs id="SvgjsDefs1027"><inkscape:path-effect effect="skeletal" id="SvgjsInkscape:path-effect1026" is_visible="true" lpeversion="1" pattern="M 0,4.9921381 C 0,2.2364779 2.2364779,0 4.9921381,0 c 2.7556603,0 4.9921381,2.2364779 4.9921381,4.9921381 0,2.7556603 -2.2364778,4.9921381 -4.9921381,4.9921381 C 2.2364779,9.9842762 0,7.7477984 0,4.9921381 Z" copytype="single_stretched" prop_scale="1.0466486" scale_y_rel="false" spacing="0" normal_offset="0" tang_offset="0" prop_units="false" vertical_pattern="false" hide_knot="false" fuse_tolerance="0"></inkscape:path-effect><inkscape:path-effect effect="spiro" id="SvgjsInkscape:path-effect1025" is_visible="true" lpeversion="1"></inkscape:path-effect><inkscape:path-effect effect="bspline" id="SvgjsInkscape:path-effect1024" is_visible="true" lpeversion="1.3" weight="33.333333" steps="2" helper_size="0" apply_no_weight="true" apply_with_weight="true" only_selected="false" uniform="false"></inkscape:path-effect><rect x="49.846973" y="59.67255" width="416.9216" height="340.34317" id="SvgjsRect1023"></rect></defs><g inkscape:groupmode="layer" id="SvgjsG1022" inkscape:label="fill"><path style="fill:#002538;fill-opacity:1;stroke-width:0.301913" d="M 54.899064,122.02042 C 30.182721,118.82325 10.073611,101.07774 4.0363655,77.136063 2.6297789,71.558011 2.2673532,67.874638 2.4397652,60.909628 2.61518,53.823314 3.2274943,50.091204 5.2215665,43.954318 6.5224688,39.950702 9.827905,33.168836 12.261366,29.510542 25.912015,8.989112 50.867846,-1.1097174 74.812613,4.198045 c 11.066987,2.4531849 20.47126,7.491869 28.628927,15.339003 24.37842,23.450401 24.58915,61.98668 0.46846,85.667802 -9.408844,9.23739 -20.756979,14.81042 -33.987315,16.69108 -3.360521,0.47769 -11.755379,0.54725 -15.023621,0.12449 z m 11.50344,-9.6504 c 8.523155,-0.86662 16.185904,-3.61301 23.258473,-8.336 1.607516,-1.07348 3.084663,-2.14687 3.282548,-2.38531 0.312295,-0.37629 -3.833373,-0.43352 -31.401337,-0.43352 H 29.781055 l 0.853429,0.71761 c 1.877391,1.57864 6.151385,4.24751 9.053679,5.65353 8.277783,4.01019 17.710155,5.69922 26.714341,4.78369 z M 83.637716,92.653447 C 96.66128,90.57357 103.6766,85.78947 109.59973,74.948642 c 1.56722,-2.868404 1.89792,-5.097942 1.88086,-12.6804 -0.0125,-5.564762 -0.11191,-6.943582 -0.69639,-9.661258 -1.41195,-6.565201 -3.97883,-12.739311 -7.45571,-17.933286 -2.02298,-3.022031 -2.39745,-3.502628 -2.72919,-3.502628 -0.33837,0 -5.256515,4.886537 -5.256515,5.222735 0,0.139959 0.614548,1.115689 1.365665,2.168287 1.67836,2.352 3.22118,5.638461 4.1279,8.793085 0.58392,2.031516 0.68323,3.07489 0.67232,7.063293 -0.0115,4.20524 -0.0954,4.948923 -0.82774,7.335488 -2.92213,9.522992 -9.566528,16.170656 -19.139155,19.148578 l -2.653319,0.825416 -16.303371,0.09498 c -8.966856,0.05224 -17.790744,0.05534 -19.608643,0.0069 l -3.305271,-0.08811 3.424717,-3.924885 C 44.979483,75.658138 56.927857,63.464574 69.647825,50.720018 L 92.775043,27.548096 H 59.231608 25.688173 l -1.492253,1.58505 c -1.710761,1.817148 -3.469915,4.127135 -5.084829,6.677012 l -1.121567,1.770906 25.349704,-0.115609 25.349705,-0.115613 -2.599053,2.783883 -2.599052,2.783882 -5.419923,1.340003 1.796949,-4.783899 3.414879,0.07832 0.05206,3.557024 -16.829183,16.753078 c -9.256051,9.214194 -20.599339,20.477456 -25.207305,25.029472 -4.607967,4.552019 -8.378121,8.327832 -8.378121,8.390699 0,0.06287 15.182515,0.0635 33.738922,0.0013 30.041196,-0.10052 34.093985,-0.169598 36.97861,-0.630274 z M 32.379297,62.721113 49.696824,45.361042 H 32.055815 14.41481 l -0.31614,0.830265 c -0.522066,1.371079 -1.715859,6.403305 -2.130784,8.981948 -0.559709,3.478432 -0.477107,12.018311 0.150395,15.548586 0.625695,3.520122 2.289369,9.359344 2.666603,9.359344 0.152286,0 8.069771,-7.812032 17.594413,-17.360072 z m 18.585934,11.954878 -3.718343,0.121693 6.252123,-2.201098 c 1.174768,-0.413584 -3.263906,5.594289 -3.177093,5.507474 0.08681,-0.08681 1.883651,-3.468664 0.643313,-3.428069 z m 15.393781,-5.010848 c 0,-2.407767 -0.03572,-4.377759 -0.07938,-4.377759 -0.04366,0 -2.045861,1.969992 -4.449331,4.377759 l -4.369946,4.377756 h 4.449329 4.449331 z m 11.937661,2.108861 c 6.133978,-1.559234 10.93206,-6.034196 13.015439,-12.13893 0.645253,-1.890725 0.806378,-2.936832 0.826746,-5.367562 0.03438,-4.102806 -0.747951,-7.048172 -2.688651,-10.12244 l -0.810858,-1.284488 -7.517198,7.512687 -7.517196,7.512685 v 7.172727 7.17273 h 1.446141 c 0.795377,0 2.255887,-0.205833 3.245577,-0.457409 z m 9.084876,-52.313691 c -0.330094,-0.534105 -6.592787,-3.425979 -9.581634,-4.424434 -6.233334,-2.082312 -8.363106,-2.400325 -16.120575,-2.407093 -6.064316,-0.0053 -7.332797,0.07883 -10.012794,0.664004 -5.436026,1.186949 -11.536436,3.495929 -15.197047,5.75202 l -1.056701,0.65126 26.057926,0.0011 c 14.33186,6.08e-4 25.99173,-0.105978 25.910825,-0.236885 z" id="SvgjsPath1021" sodipodi:nodetypes="sssssssssssssscssscssssssssssscsscsscccsscccccccccssscccscccsssssscsssssscccssssscccccsssssssccss"></path></g></svg><style>@media (prefers-color-scheme: light) { :root { filter: none; } }
@media (prefers-color-scheme: dark) { :root { filter: contrast(0.3846153846153846) brightness(4.5); } }
</style></svg>