<svg xmlns="http://www.w3.org/2000/svg" version="1.1" xmlns:xlink="http://www.w3.org/1999/xlink" xmlns:svgjs="http://svgjs.dev/svgjs" width="470" height="470"><svg width="470" height="470" viewBox="0 0 124.35426 124.35418" version="1.1" id="SvgjsSvg1023" xml:space="preserve" sodipodi:docname="zd-logo-v2.svg" inkscape:version="1.2.2 (b0a8486541, 2022-12-01)" inkscape:export-filename="zd-logo-v2.png" inkscape:export-xdpi="96" inkscape:export-ydpi="96" xmlns:inkscape="http://www.inkscape.org/namespaces/inkscape" xmlns:sodipodi="http://sodipodi.sourceforge.net/DTD/sodipodi-0.dtd" xmlns="http://www.w3.org/2000/svg" xmlns:svg="http://www.w3.org/2000/svg"><sodipodi:namedview id="SvgjsSodipodi:namedview1022" pagecolor="#ffffff" bordercolor="#000000" borderopacity="0.25" inkscape:showpageshadow="2" inkscape:pageopacity="0.0" inkscape:pagecheckerboard="0" inkscape:deskcolor="#d1d1d1" inkscape:document-units="mm" inkscape:zoom="0.78225882" inkscape:cx="631.50455" inkscape:cy="394.37075" inkscape:window-width="1854" inkscape:window-height="1011" inkscape:window-x="66" inkscape:window-y="32" inkscape:window-maximized="1" inkscape:current-layer="layer6" showgrid="false"></sodipodi:namedview><defs id="SvgjsDefs1021"><inkscape:path-effect effect="skeletal" id="SvgjsInkscape:path-effect1020" is_visible="true" lpeversion="1" pattern="M 0,4.9921381 C 0,2.2364779 2.2364779,0 4.9921381,0 c 2.7556603,0 4.9921381,2.2364779 4.9921381,4.9921381 0,2.7556603 -2.2364778,4.9921381 -4.9921381,4.9921381 C 2.2364779,9.9842762 0,7.7477984 0,4.9921381 Z" copytype="single_stretched" prop_scale="1.0466486" scale_y_rel="false" spacing="0" normal_offset="0" tang_offset="0" prop_units="false" vertical_pattern="false" hide_knot="false" fuse_tolerance="0"></inkscape:path-effect><inkscape:path-effect effect="spiro" id="SvgjsInkscape:path-effect1019" is_visible="true" lpeversion="1"></inkscape:path-effect><inkscape:path-effect effect="bspline" id="SvgjsInkscape:path-effect1018" is_visible="true" lpeversion="1.3" weight="33.333333" steps="2" helper_size="0" apply_no_weight="true" apply_with_weight="true" only_selected="false" uniform="false"></inkscape:path-effect><rect x="49.846973" y="59.67255" width="416.9216" height="340.34317" id="SvgjsRect1017"></rect></defs><g inkscape:groupmode="layer" id="SvgjsG1016" inkscape:label="fill 5" style="display:inline"><circle style="fill:#f2f2f2;fill-opacity:1;stroke-width:0.987884;paint-order:markers fill stroke" id="SvgjsCircle1015" cx="61.61076" cy="62.36758" r="59.739605"></circle><path style="fill:#002538;fill-opacity:1;stroke-width:1.36708;paint-order:markers fill stroke" d="m 74.656656,121.39777 c -5.252401,1.04728 -12.363694,1.46277 -17.653633,1.03147 -3.872101,-0.31571 -11.157255,-1.85079 -15.04685,-3.17061 -4.989447,-1.69301 -11.887651,-5.41978 -17.180875,-9.28201 l -1.347759,-0.98341 21.354611,-5.73458 C 73.770538,95.474097 92.774543,90.021429 95.741346,88.637346 107.28611,83.251442 113.17356,77.065054 116.73556,66.577108 c 0.6411,-1.887648 1.30487,-4.294601 1.47503,-5.348791 0.56887,-3.523956 0.45285,-4.304207 -2.00277,-13.468721 -2.58586,-9.65055 -3.07363,-10.804652 -7.08176,-16.756144 -4.17917,-6.20546 -12.468474,-14.661646 -13.976261,-14.257636 -0.395243,0.105905 -4.483033,6.999874 -4.379561,7.386038 0.04302,0.16055 1.017327,1.151444 2.165132,2.201983 6.0918,5.575592 9.00903,10.743039 10.47588,18.556507 1.88511,10.041449 -2.26203,21.38165 -10.350133,28.302027 -0.90575,0.774982 -2.657855,2.151916 -3.893563,3.059856 l -2.246721,1.650798 -21.477733,5.888449 -21.477731,5.888448 1.376649,-2.73355 c 2.243077,-4.453968 5.644368,-10.499231 23.478609,-41.729545 9.325128,-16.329641 16.965441,-29.808938 16.978467,-29.953994 0.01414,-0.15749 -14.816468,3.712669 -36.814607,9.607053 l -36.83829,9.87079 -1.404008,2.852977 c -0.772204,1.56914 -1.9813042,4.536191 -2.6868896,6.593446 l -1.2828823,3.740467 1.079711,-0.07706 C 8.4459688,47.808126 20.790627,44.51544 35.284702,40.533426 l 26.352864,-7.240019 -0.735264,1.581262 C 60.497909,35.744367 51.126918,52.046929 40.077877,71.102587 21.353238,103.39592 19.954105,105.72214 19.479188,105.35016 17.754343,103.99921 12.464515,97.364176 10.201807,93.713552 6.9126858,88.406916 5.8003406,85.697312 3.7112593,77.90297 1.7392225,70.545322 1.4716073,68.887732 1.3677116,63.387217 1.2353864,56.381519 2.1837136,50.153306 4.423143,43.320442 9.6406279,27.401049 20.839086,14.73911 36.295497,7.2828225 39.731605,5.6252182 49.075844,2.8101144 52.81502,2.3060471 66.743585,0.42837768 79.789302,2.898392 91.55709,9.6412857 c 6.670711,3.8222913 11.15571,7.4788333 15.93994,12.9955593 3.91399,4.513242 6.14501,7.885213 9.09627,13.748119 1.32307,2.628392 4.67973,14.208412 5.18577,17.890222 0.45987,3.345888 0.58892,9.424381 0.2791,13.146322 -1.71617,20.616954 -14.56819,39.484132 -33.226296,48.777252 -4.352657,2.16795 -10.760658,4.5182 -14.175218,5.19901 z m 11.658035,-7.72672 c 7.365566,-3.63864 13.158328,-7.99968 18.258969,-13.746117 2.97366,-3.350167 7.3217,-9.921769 5.78863,-8.748895 -1.45848,1.115792 -5.78337,3.770361 -7.59631,4.662513 -2.06669,1.017028 -4.805649,1.79997 -33.492163,9.573839 l -31.241408,8.46625 0.811676,0.51015 c 1.399026,0.87932 8.079565,2.97276 11.84078,3.71048 5.679685,1.11402 11.713414,1.36532 17.874406,0.74442 3.784828,-0.38142 14.197091,-3.41479 17.75542,-5.17264 z M 30.385771,71.194111 44.408969,47.070255 24.7178,52.332518 5.0266273,57.594782 l 0.00209,3.891512 c 0.0033,6.124657 0.1773579,7.243472 2.4413913,15.692541 2.1987629,8.20549 2.6644473,9.403233 5.5066253,14.163079 1.833973,3.071393 2.657414,4.171221 3.045197,4.067316 0.187356,-0.05022 6.651076,-10.947011 14.363833,-24.215132 z m 53.504776,-1.773024 c 3.66077,-2.421454 7.017908,-6.927188 8.414981,-11.29404 0.839791,-2.624938 1.5051,-7.333049 1.353316,-9.576842 -0.171965,-2.542122 -2.147065,-8.724684 -3.410833,-10.676751 -1.057432,-1.633351 -4.112919,-4.882336 -4.611224,-4.903244 -0.157792,-0.0066 -5.941282,9.782646 -12.852193,21.753923 L 60.219301,76.490093 71.132063,73.566028 82.044824,70.641962 Z M 74.501429,9.0712072 C 76.438884,8.4305394 77.378606,8.0109846 77.269044,7.8355593 76.778038,7.049375 67.387907,5.6713994 61.93038,5.5846533 57.56837,5.5153192 55.274433,5.9065377 46.800846,8.1649122 38.335882,10.420988 36.767867,11.074604 31.133871,14.69556 c -4.117104,2.646054 -10.874237,8.272783 -10.70286,8.912373 0.05212,0.19451 50.697725,-13.421462 54.070418,-14.5367258 z" id="SvgjsPath1014"></path><path sodipodi:type="star" style="fill:#f2f2f2;fill-opacity:1;stroke-width:1.32292;paint-order:markers fill stroke" id="SvgjsPath1013" inkscape:flatsided="false" sodipodi:sides="3" sodipodi:cx="-5.3114185" sodipodi:cy="104.9494" sodipodi:r1="10.79627" sodipodi:r2="5.443192" sodipodi:arg1="-0.78982976" sodipodi:arg2="0.36713619" inkscape:rounded="0" inkscape:randomized="0" d="m 2.2887913,97.28153 -2.51975694,9.62167 -2.23998566,8.46211 -7.0727348,-6.99301 -6.2084099,-6.17094 9.5924922,-2.62866 z" inkscape:transform-center-x="-0.30391028" inkscape:transform-center-y="-0.063990996" transform="matrix(0.37497374,-0.31278502,0.45093316,0.09758506,-24.665594,96.173294)"></path></g><g inkscape:groupmode="layer" id="SvgjsG1012" inkscape:label="fill 6"></g></svg><style>@media (prefers-color-scheme: light) { :root { filter: none; } }
@media (prefers-color-scheme: dark) { :root { filter: none; } }
</style></svg>